<?xml version="1.0" standalone="no"?>
<svg xmlns:xlink="http://www.w3.org/1999/xlink" id="wave" style="transform:rotate(180deg); transition: 0.3s" viewBox="0 0 1440 100" version="1.1" xmlns="http://www.w3.org/2000/svg"><defs><linearGradient id="sw-gradient-0" x1="0" x2="0" y1="1" y2="0"><stop stop-color="rgba(255, 249, 234, 1)" offset="0%"/><stop stop-color="rgba(255, 249, 234, 1)" offset="100%"/></linearGradient></defs><path style="transform:translate(0, 0px); opacity:1" fill="url(#sw-gradient-0)" d="M0,0L48,10C96,20,192,40,288,40C384,40,480,20,576,23.3C672,27,768,53,864,66.7C960,80,1056,80,1152,73.3C1248,67,1344,53,1440,50C1536,47,1632,53,1728,48.3C1824,43,1920,27,2016,31.7C2112,37,2208,63,2304,76.7C2400,90,2496,90,2592,75C2688,60,2784,30,2880,23.3C2976,17,3072,33,3168,33.3C3264,33,3360,17,3456,10C3552,3,3648,7,3744,18.3C3840,30,3936,50,4032,50C4128,50,4224,30,4320,20C4416,10,4512,10,4608,16.7C4704,23,4800,37,4896,45C4992,53,5088,57,5184,58.3C5280,60,5376,60,5472,56.7C5568,53,5664,47,5760,43.3C5856,40,5952,40,6048,43.3C6144,47,6240,53,6336,48.3C6432,43,6528,27,6624,25C6720,23,6816,37,6864,43.3L6912,50L6912,100L6864,100C6816,100,6720,100,6624,100C6528,100,6432,100,6336,100C6240,100,6144,100,6048,100C5952,100,5856,100,5760,100C5664,100,5568,100,5472,100C5376,100,5280,100,5184,100C5088,100,4992,100,4896,100C4800,100,4704,100,4608,100C4512,100,4416,100,4320,100C4224,100,4128,100,4032,100C3936,100,3840,100,3744,100C3648,100,3552,100,3456,100C3360,100,3264,100,3168,100C3072,100,2976,100,2880,100C2784,100,2688,100,2592,100C2496,100,2400,100,2304,100C2208,100,2112,100,2016,100C1920,100,1824,100,1728,100C1632,100,1536,100,1440,100C1344,100,1248,100,1152,100C1056,100,960,100,864,100C768,100,672,100,576,100C480,100,384,100,288,100C192,100,96,100,48,100L0,100Z"/></svg>